<svg width="13" height="17" viewBox="0 0 13 17" fill="none" xmlns="http://www.w3.org/2000/svg">
<g clip-path="url(#clip0_1_2)">
<path d="M6.49988 0.862305L0.380969 6.98121C-0.127315 7.4895 -0.127315 8.31107 0.380969 8.81936C0.889253 9.32764 1.71083 9.32764 2.21911 8.81936L5.19992 5.83855V15.7C5.19992 16.4176 5.781 17 6.49988 17C7.21875 17 7.79984 16.4176 7.79984 15.7V5.83855L10.7806 8.81936C11.0341 9.07285 11.3669 9.20024 11.6997 9.20024C12.0325 9.20024 12.3653 9.07285 12.6188 8.81936C13.1271 8.31107 13.1271 7.4895 12.6188 6.98121L6.49988 0.862305Z" fill="white"/>
</g>
<defs>
<clipPath id="clip0_1_2">
<rect width="13.0002" height="16.8995" fill="white" transform="translate(-0.000244141 0.100533)"/>
</clipPath>
</defs>
</svg>
